<?xml version="1.0" encoding="utf-8"?>
<!-- Generator: Adobe Illustrator 24.0.3, SVG Export Plug-In . SVG Version: 6.00 Build 0)  -->
<svg version="1.1" id="_x31__x2C_5" xmlns="http://www.w3.org/2000/svg" xmlns:xlink="http://www.w3.org/1999/xlink" x="0px"
	 y="0px" viewBox="0 0 512 512" style="enable-background:new 0 0 512 512;" xml:space="preserve">
<style type="text/css">
	.st0{fill:#F3F3F1;}
	.st1{fill:#A4AFC1;}
	.st2{fill:#4550E6;}
	.st3{fill:#EFEFEF;}
	.st4{fill:#3947C6;}
	.st5{fill:#D5DBE1;}
</style>
<path class="st0" d="M392.9,452.7c-98.4,0-165.9,51-213.3,51s-147-27.2-147-245.3S166.5,8.3,218.6,8.3
	C462.8,8.3,567.1,452.7,392.9,452.7z"/>
<path class="st1" d="M49.8,85.3C38,85.3,28.4,75.8,28.4,64S38,42.7,49.8,42.7S71.1,52.2,71.1,64S61.5,85.3,49.8,85.3z M49.8,56.9
	c-3.9,0-7.1,3.2-7.1,7.1c0,3.9,3.2,7.1,7.1,7.1s7.1-3.2,7.1-7.1C56.9,60.1,53.7,56.9,49.8,56.9z"/>
<path class="st2" d="M416,138.7V160H96v-21.3c0-15.6,12.8-28.4,28.4-28.4h263.1C403.2,110.2,416,123,416,138.7z"/>
<path class="st3" d="M416,160v213.3c0,15.6-12.8,28.4-28.4,28.4H124.4c-15.6,0-28.4-12.8-28.4-28.4V160H416z"/>
<path class="st4" d="M156.4,110.2h-32c-15.6,0-28.4,12.8-28.4,28.4V160h32v-21.3C128,123,140.8,110.2,156.4,110.2z"/>
<path class="st5" d="M128,373.3V160H96v213.3c0,15.6,12.8,28.4,28.4,28.4h32C140.8,401.8,128,389,128,373.3z"/>
<path d="M387.6,412.4H124.4c-21.6,0-39.1-17.5-39.1-39.1V138.7c0-21.6,17.5-39.1,39.1-39.1h263.1c21.6,0,39.1,17.5,39.1,39.1v234.7
	C426.7,394.9,409.1,412.4,387.6,412.4z M124.4,120.9c-9.8,0-17.8,8-17.8,17.8v234.7c0,9.8,8,17.8,17.8,17.8h263.1
	c9.8,0,17.8-8,17.8-17.8V138.7c0-9.8-8-17.8-17.8-17.8H124.4z"/>
<path d="M416,170.7H96c-5.9,0-10.7-4.8-10.7-10.7c0-5.9,4.8-10.7,10.7-10.7h320c5.9,0,10.7,4.8,10.7,10.7
	C426.7,165.9,421.9,170.7,416,170.7z"/>
<path d="M302.2,320c-2.5,0-4.9-0.8-6.9-2.6c-4.5-3.8-5-10.6-1.2-15l15.4-17.9l-15.4-17.9c-3.8-4.5-3.3-11.2,1.2-15
	c4.5-3.8,11.2-3.3,15,1.2l21.3,24.9c3.4,4,3.4,9.9,0,13.9l-21.3,24.9C308.2,318.7,305.2,320,302.2,320L302.2,320z"/>
<path d="M209.8,320c-3,0-6-1.3-8.1-3.7l-21.3-24.9c-3.4-4-3.4-9.9,0-13.9l21.3-24.9c3.8-4.5,10.6-5,15-1.2c4.5,3.8,5,10.6,1.2,15
	l-15.4,17.9l15.4,17.9c3.8,4.5,3.3,11.2-1.2,15C214.7,319.1,212.2,320,209.8,320L209.8,320z"/>
<path d="M245.3,341.3c-0.8,0-1.6-0.1-2.4-0.3c-5.7-1.3-9.3-7.1-8-12.8l21.3-92.4c1.3-5.7,7-9.3,12.8-8c5.7,1.3,9.3,7.1,8,12.8
	l-21.3,92.4C254.6,338,250.2,341.3,245.3,341.3L245.3,341.3z"/>
</svg>
